<svg width="213" height="70" viewBox="0 0 213 70" fill="none" xmlns="http://www.w3.org/2000/svg">
<path d="M33.8125 0.75V69H20.9688V0.75H33.8125ZM55 0.75V10.9219H0.015625V0.75H55ZM89.0781 56.9531V18.2812H101.547V69H89.8281L89.0781 56.9531ZM90.6719 46.4531L94.5156 46.3594C94.5156 49.7656 94.1406 52.9062 93.3906 55.7812C92.6406 58.6562 91.4688 61.1562 89.875 63.2812C88.3125 65.375 86.3281 67.0156 83.9219 68.2031C81.5156 69.3594 78.6719 69.9375 75.3906 69.9375C72.8906 69.9375 70.6094 69.5938 68.5469 68.9062C66.4844 68.1875 64.7031 67.0781 63.2031 65.5781C61.7344 64.0469 60.5938 62.0938 59.7812 59.7188C58.9688 57.3125 58.5625 54.4219 58.5625 51.0469V18.2812H70.9375V51.1406C70.9375 52.8281 71.125 54.2344 71.5 55.3594C71.9062 56.4844 72.4531 57.4062 73.1406 58.125C73.8594 58.8125 74.6875 59.3125 75.625 59.625C76.5938 59.9062 77.625 60.0469 78.7188 60.0469C81.7188 60.0469 84.0781 59.4531 85.7969 58.2656C87.5469 57.0469 88.7969 55.4219 89.5469 53.3906C90.2969 51.3281 90.6719 49.0156 90.6719 46.4531ZM198.438 62.9531C198.438 61.0781 199.078 59.5 200.359 58.2188C201.641 56.9375 203.375 56.2969 205.562 56.2969C207.75 56.2969 209.484 56.9375 210.766 58.2188C212.047 59.5 212.688 61.0781 212.688 62.9531C212.688 64.7969 212.047 66.3594 210.766 67.6406C209.484 68.8906 207.75 69.5156 205.562 69.5156C203.375 69.5156 201.641 68.8906 200.359 67.6406C199.078 66.3594 198.438 64.7969 198.438 62.9531Z" fill="black"/>
<path d="M136.516 18.2812V27.1875H107.453V18.2812H136.516ZM115.234 5.8125H127.656V54.375C127.656 55.875 127.859 57.0312 128.266 57.8438C128.672 58.6562 129.281 59.2031 130.094 59.4844C130.906 59.7656 131.875 59.9062 133 59.9062C133.812 59.9062 134.562 59.8594 135.25 59.7656C135.938 59.6719 136.516 59.5781 136.984 59.4844L137.031 68.7656C136 69.1094 134.828 69.3906 133.516 69.6094C132.234 69.8281 130.781 69.9375 129.156 69.9375C126.375 69.9375 123.938 69.4688 121.844 68.5312C119.75 67.5625 118.125 66.0156 116.969 63.8906C115.812 61.7344 115.234 58.8906 115.234 55.3594V5.8125ZM141.344 44.1562V43.1719C141.344 39.4531 141.875 36.0312 142.938 32.9062C144 29.75 145.547 27.0156 147.578 24.7031C149.609 22.3906 152.094 20.5937 155.031 19.3125C157.969 18 161.312 17.3438 165.062 17.3438C168.875 17.3438 172.25 18 175.188 19.3125C178.156 20.5937 180.656 22.3906 182.688 24.7031C184.719 27.0156 186.266 29.75 187.328 32.9062C188.391 36.0312 188.922 39.4531 188.922 43.1719V44.1562C188.922 47.8438 188.391 51.2656 187.328 54.4219C186.266 57.5469 184.719 60.2812 182.688 62.625C180.656 64.9375 178.172 66.7344 175.234 68.0156C172.297 69.2969 168.938 69.9375 165.156 69.9375C161.406 69.9375 158.047 69.2969 155.078 68.0156C152.109 66.7344 149.609 64.9375 147.578 62.625C145.547 60.2812 144 57.5469 142.938 54.4219C141.875 51.2656 141.344 47.8438 141.344 44.1562ZM153.719 43.1719V44.1562C153.719 46.375 153.938 48.4531 154.375 50.3906C154.812 52.3281 155.484 54.0312 156.391 55.5C157.297 56.9688 158.469 58.125 159.906 58.9688C161.375 59.7812 163.125 60.1875 165.156 60.1875C167.156 60.1875 168.875 59.7812 170.312 58.9688C171.75 58.125 172.922 56.9688 173.828 55.5C174.766 54.0312 175.453 52.3281 175.891 50.3906C176.328 48.4531 176.547 46.375 176.547 44.1562V43.1719C176.547 40.9844 176.328 38.9375 175.891 37.0312C175.453 35.0938 174.766 33.3906 173.828 31.9219C172.922 30.4219 171.734 29.25 170.266 28.4062C168.828 27.5312 167.094 27.0938 165.062 27.0938C163.062 27.0938 161.344 27.5312 159.906 28.4062C158.469 29.25 157.297 30.4219 156.391 31.9219C155.484 33.3906 154.812 35.0938 154.375 37.0312C153.938 38.9375 153.719 40.9844 153.719 43.1719Z" fill="#3366FF"/>
</svg>
