<svg width="108" height="108" viewBox="0 0 108 108" fill="none" xmlns="http://www.w3.org/2000/svg">
<g filter="url(#filter0_d_404_4)">
<rect x="4" width="100" height="100" rx="20" fill="#3366FF"/>
</g>
<g filter="url(#filter1_d_404_4)">
<path d="M52.606 21.5828C53.2201 19.7728 55.7799 19.7728 56.394 21.5828L62.0097 38.136C62.285 38.9475 63.0467 39.4934 63.9037 39.4934L81.8867 39.4934C83.845 39.4934 84.6365 42.0166 83.0291 43.1351L68.6311 53.1538C67.8997 53.6627 67.5932 54.5942 67.8795 55.438L73.4137 71.7508C74.0337 73.5784 71.9615 75.1373 70.3774 74.035L55.6423 63.7817C54.9557 63.304 54.0443 63.304 53.3577 63.7817L38.6226 74.035C37.0385 75.1373 34.9663 73.5784 35.5863 71.7508L41.1205 55.438C41.4068 54.5942 41.1003 53.6627 40.3689 53.1538L25.9709 43.1351C24.3635 42.0166 25.155 39.4934 27.1133 39.4934L45.0963 39.4934C45.9532 39.4934 46.715 38.9475 46.9903 38.136L52.606 21.5828Z" fill="white"/>
</g>
<defs>
<filter id="filter0_d_404_4" x="0" y="0" width="108" height="108" filterUnits="userSpaceOnUse" color-interpolation-filters="sRGB">
<feFlood flood-opacity="0" result="BackgroundImageFix"/>
<feColorMatrix in="SourceAlpha" type="matrix" values="0 0 0 0 0 0 0 0 0 0 0 0 0 0 0 0 0 0 127 0" result="hardAlpha"/>
<feOffset dy="4"/>
<feGaussianBlur stdDeviation="2"/>
<feComposite in2="hardAlpha" operator="out"/>
<feColorMatrix type="matrix" values="0 0 0 0 0 0 0 0 0 0 0 0 0 0 0 0 0 0 0.25 0"/>
<feBlend mode="normal" in2="BackgroundImageFix" result="effect1_dropShadow_404_4"/>
<feBlend mode="normal" in="SourceGraphic" in2="effect1_dropShadow_404_4" result="shape"/>
</filter>
<filter id="filter1_d_404_4" x="21.1096" y="20.2253" width="66.7808" height="62.1771" filterUnits="userSpaceOnUse" color-interpolation-filters="sRGB">
<feFlood flood-opacity="0" result="BackgroundImageFix"/>
<feColorMatrix in="SourceAlpha" type="matrix" values="0 0 0 0 0 0 0 0 0 0 0 0 0 0 0 0 0 0 127 0" result="hardAlpha"/>
<feOffset dy="4"/>
<feGaussianBlur stdDeviation="2"/>
<feComposite in2="hardAlpha" operator="out"/>
<feColorMatrix type="matrix" values="0 0 0 0 0 0 0 0 0 0 0 0 0 0 0 0 0 0 0.25 0"/>
<feBlend mode="normal" in2="BackgroundImageFix" result="effect1_dropShadow_404_4"/>
<feBlend mode="normal" in="SourceGraphic" in2="effect1_dropShadow_404_4" result="shape"/>
</filter>
</defs>
</svg>
